# AST/ASF file generated using VICON BodyLanguage
# -----------------------------------------------
:version 1.10
:name VICON
:units
  mass 1.0
  length 0.45
  angle deg
:documentation
   .ast/.asf automatically generated from VICON data using
   VICON BodyBuilder and BodyLanguage model FoxedUp or BRILLIANT.MOD
:root
   order TX TY TZ RX RY RZ
   axis XYZ
   position 0 0 0  
   orientation 0 0 0 
:bonedata
  begin
     id 1 
     name lhipjoint
     direction 0.589753 -0.68606 0.426044 
     length 2.54082 
     axis 0 0 0  XYZ
  end
  begin
     id 2 
     name lfemur
     direction 0.34202 -0.939693 0  
     length 7.04539  
     axis 0 0 20  XYZ
    dof rx ry rz
    limits (-160.0 20.0)
           (-70.0 70.0)
           (-60.0 70.0)
  end
  begin
     id 3 
     name ltibia
     direction 0.34202 -0.939693 0   
     length 7.83772   
     axis 0 0 20   XYZ
    dof rx
    limits (-10.0 170.0)
  end
  begin
     id 4 
     name lfoot
     direction 0.0596604 -0.163915 0.984669   
     length 2.39542   
     axis -90 7.62852e-016 20   XYZ
    dof rx rz
    limits (-45.0 90.0)
           (-70.0 20.0)
  end
  begin
     id 5 
     name ltoes
     direction 1.53514e-011 -4.21954e-011 1   
     length 1.2047   
     axis -90 7.62852e-016 20   XYZ
    dof rx
    limits (-90.0 20.0)
  end
  begin
     id 6 
     name rhipjoint
     direction -0.580585 -0.69168 0.429534   
     length 2.52018  
     axis 0 0 0  XYZ 
  end
  begin
     id 7 
     name rfemur
     direction -0.34202 -0.939693 0   
     length 7.0101   
     axis 0 0 -20   XYZ
    dof rx ry rz
    limits (-160.0 20.0)
           (-70.0 70.0)
           (-70.0 60.0)
  end
  begin
     id 8 
     name rtibia
     direction -0.34202 -0.939693 0   
     length 7.70628   
     axis 0 0 -20   XYZ
    dof rx
    limits (-10.0 170.0)
 end
 begin
     id 9 
     name rfoot
     direction -0.0696237 -0.19129 0.979061   
     length 2.52466  
     axis -90 -7.62852e-016 -20   XYZ
    dof rx rz
    limits (-45.0 90.0)
           (-20.0 70.0)
  end
  begin
     id 10 
     name rtoes
     direction -1.53519e-011 -4.21793e-011 1   
     length 1.266   
     axis -90 -7.62852e-016 -20   XYZ
    dof rx
    limits (-90.0 20.0)
  end
  begin
     id 11 
     name lowerback
     direction 0.00381965 0.995707 -0.0924856   
     length 2.20825   
     axis 0 0 0   XYZ
    dof rx ry rz
    limits (-20.0 45.0)
           (-30.0 30.0)
           (-30.0 30.0)
  end
  begin
     id 12 
     name upperback
     direction -0.0139043 0.999634 -0.0231929   
     length 2.21517   
     axis 0 0 0   XYZ
    dof rx ry rz
    limits (-20.0 45.0)
           (-30.0 30.0)
           (-30.0 30.0)
  end
  begin
     id 13 
     name thorax
     direction -0.0143933 0.999691 0.0202892   
     length 2.22911   
     axis 0 0 0   XYZ
    dof rx ry rz
    limits (-20.0 45.0)
           (-30.0 30.0)
           (-30.0 30.0)
  end
  begin
     id 14 
     name lowerneck
     direction -0.0251153 0.981819 0.188153   
     length 1.61782   
     axis 0 0 0   XYZ
    dof rx ry rz
    limits (-20.0 45.0)
           (-30.0 30.0)
           (-30.0 30.0)
  end
  begin
     id 15 
     name upperneck
     direction 0.0563891 0.969357 -0.239095   
     length 1.64526   
     axis 0 0 0   XYZ
    dof rx ry rz
    limits (-20.0 45.0)
           (-30.0 30.0)
           (-30.0 30.0)
  end
  begin
     id 16
     name head
     direction 0.0208328 0.99459 -0.101773  
     length 1.67436  
     axis 0 0 0   XYZ
    dof rx ry rz
    limits (-20.0 45.0)
           (-30.0 30.0)
           (-30.0 30.0)
  end
  begin
     id 17 
     name lclavicle
     direction 0.917689 0.397224 0.00772059  
     length 3.31102  
     axis 0 0 0   XYZ
    dof ry rz
    limits (-20.0 10.0)
           (0.0 20.0)
  end
  begin
     id 18 
     name lhumerus
     direction 1 -4.4896e-011 2.32308e-027   
     length 5.25537   
     axis 180 -30 -90   XYZ
    dof rx ry rz
    limits (-60.0 90.0)
           (-90.0 90.0)
           (-90.0 90.0)
  end
  begin
     id 19
     name lradius
     direction 1 -4.49005e-011 -2.04271e-027   
     length 3.38855   
     axis 180 -30 -90   XYZ
    dof rx
    limits (-10.0 170.0)
  end
  begin
     id 20
     name lwrist
     direction 1 -4.48892e-011 2.56952e-028   
     length 1.69428   
     axis -5.12785e-016 90 90   XYZ
    dof ry
    limits (-180.0 0.0)
 end
  begin
     id 21 
     name lhand
     direction 1 -4.48966e-011 5.13905e-028   
     length 0.614516   
     axis -3.27915e-016 90 90   XYZ
    dof rx rz
    limits (-90.0 90.0)
           (-45.0 45.0)
  end
  begin
     id 22 
     name lfingers
     direction 1 -4.48979e-011 1.02781e-027   
     length 0.495439   
     axis -6.5583e-016 90 90   XYZ
    dof rx
    limits (0.0 90.0)
  end
  begin
     id 23
     name lthumb
     direction 0.707107 -6.35001e-011 0.707107   
     length 0.711354   
     axis -90 45 2.85299e-015   XYZ
    dof rx rz
    limits (-45.0 45.0)
           (-45.0 45.0)
  end
  begin
     id 24 
     name rclavicle
     direction -0.938556 0.342765 -0.0403177   
     length 3.27019  
     axis 0 0 0   XYZ 
    dof ry rz
    limits (-10.0 20.0)
           (-20.0 0.0)
  end
  begin
     id 25 
     name rhumerus
     direction -1 -4.48966e-011 2.52291e-027  
     length 5.38183   
     axis 180 30 90   XYZ
    dof rx ry rz
    limits (-90.0 60.0)
           (-90.0 90.0)
           (-90.0 90.0)
  end
  begin
     id 26 
     name rradius
     direction -1 -4.4896e-011 1.5797e-027   
     length 3.16988   
     axis 180 30 90   XYZ
    dof rx
    limits (-10.0 170.0)
  end
  begin
     id 27 
     name rwrist
     direction -1 -4.48947e-011 2.56952e-028   
     length 1.58494   
     axis -5.12785e-016 -90 -90   XYZ
    dof ry
    limits (-180.0 0.0)
  end
  begin
     id 28
     name rhand
     direction -1 -4.49098e-011 5.13905e-028   
     length 0.637679   
     axis -3.27915e-016 -90 -90   XYZ
    dof rx rz
    limits (-90.0 90.0)
           (-45.0 45.0)
  end
  begin
     id 29
     name rfingers
     direction -1 -4.49026e-011 1.02781e-027   
     length 0.514113   
     axis -6.5583e-016 -90 -90   XYZ
    dof rx
    limits (0.0 90.0)
  end
  begin
     id 30
     name rthumb
     direction -0.707107 -6.3491e-011 0.707107   
     length 0.738167   
     axis -90 -45 -2.85299e-015   XYZ
    dof rx rz
    limits (-45.0 45.0)
           (-45.0 45.0)
  end
:hierarchy
  begin
    root lhipjoint rhipjoint lowerback
    lhipjoint lfemur
    lfemur ltibia
    ltibia lfoot
    lfoot ltoes
    rhipjoint rfemur
    rfemur rtibia
    rtibia rfoot
    rfoot rtoes
    lowerback upperback
    upperback thorax
    thorax lowerneck lclavicle rclavicle
    lowerneck upperneck
    upperneck head
    lclavicle lhumerus
    lhumerus lradius
    lradius lwrist
    lwrist lhand lthumb
    lhand lfingers
    rclavicle rhumerus
    rhumerus rradius
    rradius rwrist
    rwrist rhand rthumb
    rhand rfingers
  end

#!OML:ASF H:\Swim\Project 1\Capture day 1\Session 1\swimmer.ASF
:FULLY-SPECIFIED
:DEGREES
4271
root 4.46915 11.7779 7.96386 82.2297 -1.84287 -2.73938
lowerback 8.72554 -0.13922 -1.49799
upperback -6.5539 -0.560045 -1.37931
thorax -12.0145 -0.21706 -0.55034
lowerneck -21.1864 -8.03884 -9.78319
upperneck -13.1214 -8.11097 19.8213
head 0.862027 -3.56395 7.23554
rclavicle -7.15625e-015 7.7526e-015
rhumerus -42.7688 62.2899 -54.309
rradius 131.493
rwrist -15.6291
rhand 11.2963 9.30302
rfingers 7.12502
rthumb 36.3548 -16.9255
lclavicle -7.15625e-015 7.7526e-015
lhumerus -43.3075 -64.8432 50.1578
lradius 134.393
lwrist 4.30454
lhand 6.88949 -5.19424
lfingers 7.12502
lthumb 32.1705 21.9774
rfemur -22.7203 5.79023 17.6004
rtibia 42.2869
rfoot -5.75591 -10.0129
rtoes -15.4039
lfemur -21.4989 -2.16903 -20.1836
ltibia 41.3252
lfoot 4.96844 4.4711
ltoes 4.67695
4272
root 4.47118 11.7755 7.95845 82.1221 -1.86501 -2.73467
lowerback 8.69129 -0.149478 -1.48378
upperback -6.59016 -0.572609 -1.38344
thorax -12.0352 -0.224466 -0.560734
lowerneck -21.3094 -8.03472 -9.7736
upperneck -13.0471 -8.10726 19.81
head 0.899186 -3.55255 7.2271
rclavicle -7.95139e-016 -1.49089e-014
rhumerus -43.7379 61.9781 -54.7168
rradius 131.474
rwrist -14.5847
rhand 10.9879 9.70716
rfingers 7.12502
rthumb 36.0627 -16.5939
lclavicle -7.95139e-016 -1.49089e-014
lhumerus -44.1861 -64.3776 50.4827
lradius 134.434
lwrist 3.65807
lhand 6.88783 -5.35264
lfingers 7.12502
lthumb 32.1689 21.8193
rfemur -22.6867 5.75878 17.5944
rtibia 42.2968
rfoot -5.81835 -9.98685
rtoes -15.606
lfemur -21.432 -2.14037 -20.1993
ltibia 41.3201
lfoot 4.92159 4.43971
ltoes 4.50441
4273
root 4.4732 11.773 7.95282 82.004 -1.88445 -2.73232
lowerback 8.66756 -0.15976 -1.46652
upperback -6.61796 -0.584841 -1.38758
thorax -12.0527 -0.231996 -0.572851
lowerneck -21.4343 -8.03069 -9.76349
upperneck -12.975 -8.10344 19.7982
head 0.935822 -3.54114 7.2185
rclavicle -7.95139e-016 -2.48481e-014
rhumerus -44.7967 61.6894 -55.1891
rradius 131.448
rwrist -13.4732
rhand 10.3945 10.2347
rfingers 7.12502
rthumb 35.5004 -16.203
lclavicle -7.95139e-016 -2.48481e-014
lhumerus -45.1246 -63.9079 50.8578
lradius 134.488
lwrist 3.01235
lhand 6.82902 -5.50269
lfingers 7.12502
lthumb 32.1129 21.6805
rfemur -22.6377 5.72458 17.5901
rtibia 42.3043
rfoot -5.88159 -9.96452
rtoes -15.8073
lfemur -21.3513 -2.11633 -20.2069
ltibia 41.3174
lfoot 4.87665 4.39903
ltoes 4.32753
4274
root 4.47514 11.7703 7.94695 81.8728 -1.90219 -2.73199
lowerback 8.65915 -0.169434 -1.44927
upperback -6.63841 -0.59637 -1.39095
thorax -12.0711 -0.239147 -0.584188
lowerneck -21.5594 -8.02566 -9.74979
upperneck -12.9029 -8.09929 19.7784
head 0.971599 -3.52981 7.20679
rclavicle 2.38542e-015 -7.15625e-015
rhumerus -45.9646 61.4249 -55.7464
rradius 131.415
rwrist -12.3464
rhand 9.49228 10.8702
rfingers 7.12502
rthumb 34.6446 -15.7681
lclavicle 2.38542e-015 -7.15625e-015
lhumerus -46.1658 -63.454 51.3213
lradius 134.54
lwrist 2.3316
lhand 6.60232 -5.67683
lfingers 7.12502
lthumb 31.8971 21.5497
rfemur -22.5703 5.68741 17.5874
rtibia 42.309
rfoot -5.95037 -9.94444
rtoes -16.0055
lfemur -21.2552 -2.09128 -20.2078
ltibia 41.3178
lfoot 4.81176 4.35831
ltoes 4.04555
4275
root 4.47686 11.7675 7.94088 81.7246 -1.91615 -2.73511
lowerback 8.66943 -0.177997 -1.43088
upperback -6.65076 -0.606347 -1.39308
thorax -12.0917 -0.245576 -0.59504
lowerneck -21.6916 -8.02188 -9.73901
upperneck -12.8225 -8.09681 19.7563
head 1.01098 -3.51852 7.19441
rclavicle 3.18055e-015 -7.95139e-016
rhumerus -47.2399 61.1713 -56.3988
rradius 131.371
rwrist -11.2087
rhand 8.30141 11.5902
rfingers 7.12502
rthumb 33.5136 -15.3003
lclavicle 3.18055e-015 -7.95139e-016
lhumerus -47.3299 -63.0283 51.8864
lradius 134.584
lwrist 1.59125
lhand 6.1322 -5.88825
lfingers 7.12502
lthumb 31.4493 21.4266
rfemur -22.4808 5.64954 17.59
rtibia 42.3123
rfoot -6.01943 -9.92731
rtoes -16.1996
lfemur -21.1382 -2.07995 -20.1995
ltibia 41.3212
lfoot 4.72156 4.33903
ltoes 3.6382
4276
root 4.47844 11.7647 7.93469 81.5738 -1.92544 -2.73422
lowerback 8.68564 -0.187956 -1.40953
upperback -6.65914 -0.617735 -1.39409
thorax -12.1115 -0.252886 -0.606024
lowerneck -21.8234 -8.01909 -9.72906
upperneck -12.742 -8.09561 19.7312
head 1.05023 -3.50794 7.18109
rclavicle -7.95139e-016 -7.15625e-015
rhumerus -48.5368 60.8935 -57.0599
rradius 131.353
rwrist -9.95393
rhand 6.99175 12.2509
rfingers 7.12502
rthumb 32.2678 -14.901
lclavicle -7.95139e-016 -7.15625e-015
lhumerus -48.6016 -62.629 52.5326
lradius 134.616
lwrist 0.733112
lhand 5.40537 -6.13635
lfingers 7.12502
lthumb 30.7565 21.3112
rfemur -22.3847 5.61045 17.5952
rtibia 42.3137
rfoot -6.09303 -9.91441
rtoes -16.371
lfemur -21.0197 -2.09421 -20.183
ltibia 41.3283
lfoot 4.61645 4.34678
ltoes 3.12804
4277
root 4.47977 11.7618 7.92856 81.413 -1.93323 -2.73354
lowerback 8.71531 -0.19733 -1.38985
upperback -6.66209 -0.628649 -1.39421
thorax -12.1333 -0.259771 -0.615138
lowerneck -21.9607 -8.01902 -9.71964
upperneck -12.654 -8.09875 19.7022
head 1.09274 -3.49904 7.16592
rclavicle 2.38542e-015 -8.15017e-015
rhumerus -49.8652 60.5966 -57.7445
rradius 131.336
rwrist -8.62709
rhand 5.51793 12.9305
rfingers 7.12502
rthumb 30.8639 -14.4969
lclavicle 2.38542e-015 -8.15017e-015
lhumerus -49.9667 -62.2489 53.246
lradius 134.626
lwrist -0.298832
lhand 4.41792 -6.43206
lfingers 7.12502
lthumb 29.8146 21.1886
rfemur -22.2754 5.57377 17.6017
rtibia 42.3144
rfoot -6.1664 -9.90195
rtoes -16.5431
lfemur -20.8898 -2.12282 -20.1615
ltibia 41.3373
lfoot 4.44246 4.39902
ltoes 2.21111
4278
root 4.48099 11.7589 7.92264 81.2581 -1.93981 -2.72668
lowerback 8.73865 -0.208314 -1.36918
upperback -6.66086 -0.641453 -1.39525
thorax -12.1464 -0.267734 -0.625388
lowerneck -22.0989 -8.02349 -9.71327
upperneck -12.5676 -8.10719 19.6762
head 1.13599 -3.49274 7.1517
rclavicle 5.56597e-015 4.57205e-015
rhumerus -51.1846 60.2657 -58.4219
rradius 131.326
rwrist -7.16046
rhand 3.95032 13.5604
rfingers 7.12502
rthumb 29.3683 -14.1394
lclavicle 5.56597e-015 4.57205e-015
lhumerus -51.342 -61.8623 53.941
lradius 134.611
lwrist -1.58295
lhand 3.25901 -6.78484
lfingers 7.12502
lthumb 28.708 21.0288
rfemur -22.1705 5.5326 17.6059
rtibia 42.3149
rfoot -6.23429 -9.88908
rtoes -16.7177
lfemur -20.7674 -2.16285 -20.1367
ltibia 41.3471
lfoot 4.35057 4.44707
ltoes 1.68329
4279
root 4.48205 11.756 7.91665 81.1036 -1.94972 -2.7162
lowerback 8.76388 -0.21974 -1.35501
upperback -6.65577 -0.655692 -1.39585
thorax -12.1562 -0.275822 -0.631211
lowerneck -22.239 -8.03293 -9.71495
upperneck -12.4787 -8.12076 19.6558
head 1.18171 -3.4885 7.14007
rclavicle 1.19271e-014 -6.55989e-015
rhumerus -52.5239 59.9163 -59.1257
rradius 131.306
rwrist -5.55434
rhand 2.24202 14.1465
rfingers 7.12502
rthumb 27.736 -13.8276
lclavicle 1.19271e-014 -6.55989e-015
lhumerus -52.7269 -61.4689 54.6192
lradius 134.563
lwrist -3.14179
lhand 1.91379 -7.18492
lfingers 7.12502
lthumb 27.4221 20.8393
rfemur -22.0659 5.49117 17.6038
rtibia 42.3176
rfoot -6.30191 -9.87429
rtoes -16.9107
lfemur -20.6454 -2.2004 -20.1133
ltibia 41.3543
lfoot 4.14611 4.54144
ltoes 0.475127
4280
root 4.48291 11.7531 7.91038 80.9502 -1.96338 -2.70274
lowerback 8.79288 -0.231036 -1.34715
upperback -6.64881 -0.670806 -1.39742
thorax -12.1662 -0.28384 -0.634335
lowerneck -22.3816 -8.04833 -9.71953
upperneck -12.3859 -8.14217 19.6418
head 1.23062 -3.4878 7.12996
rclavicle 5.56597e-015 -1.19271e-014
rhumerus -53.9257 59.5644 -59.9041
rradius 131.247
rwrist -3.79099
rhand 0.29231 14.7217
rfingers 7.12502
rthumb 25.8703 -13.5386
lclavicle 5.56597e-015 -1.19271e-014
lhumerus -54.1102 -61.0732 55.2718
lradius 134.477
lwrist -4.93908
lhand 0.389671 -7.63161
lfingers 7.12502
lthumb 25.9636 20.615
rfemur -21.9637 5.45159 17.5955
rtibia 42.3238
rfoot -6.37116 -9.85826
rtoes -17.1182
lfemur -20.5233 -2.25228 -20.0917
ltibia 41.357
lfoot 3.85708 4.68633
ltoes -1.22284
4281
root 4.48346 11.7503 7.90375 80.7966 -1.98288 -2.69049
lowerback 8.82526 -0.240814 -1.34933
upperback -6.63689 -0.685344 -1.39993
thorax -12.1725 -0.290778 -0.632895
lowerneck -22.529 -8.06954 -9.72993
upperneck -12.2919 -8.16991 19.6386
head 1.28257 -3.48967 7.12357
rclavicle 3.97569e-015 -4.37326e-015
rhumerus -55.3901 59.2167 -60.7633
rradius 131.128
rwrist -1.82992
rhand -1.9626 15.2699
rfingers 7.12502
rthumb 23.7093 -13.2878
lclavicle 3.97569e-015 -4.37326e-015
lhumerus -55.5137 -60.6847 55.9303
lradius 134.353
lwrist -6.88942
lhand -1.3433 -8.07714
lfingers 7.12502
lthumb 24.3031 20.4022
rfemur -21.8628 5.41495 17.5803
rtibia 42.3343
rfoot -6.44282 -9.83386
rtoes -17.3331
lfemur -20.3986 -2.29193 -20.0728
ltibia 41.3528
lfoot 3.46971 4.86331
ltoes -3.51293
